<mxfile host="app.diagrams.net" agent="Mozilla/5.0 (X11; Linux x86_64; rv:136.0) Gecko/20100101 Firefox/136.0" version="26.1.0">
  <diagram name="Page-1" id="uGslCQ2fdZ7hZf9s2vx2">
    <mxGraphModel dx="1434" dy="754" grid="1" gridSize="10" guides="1" tooltips="1" connect="1" arrows="1" fold="1" page="1" pageScale="1" pageWidth="850" pageHeight="1100" math="0" shadow="0">
      <root>
        <mxCell id="0" />
        <mxCell id="1" parent="0" />
        <mxCell id="1bS6ruDLV1M1j20cFFTH-3" style="edgeStyle=orthogonalEdgeStyle;rounded=0;orthogonalLoop=1;jettySize=auto;html=1;exitX=0.5;exitY=1;exitDx=0;exitDy=0;entryX=0.5;entryY=0;entryDx=0;entryDy=0;shape=link;" parent="1" source="1bS6ruDLV1M1j20cFFTH-1" target="1bS6ruDLV1M1j20cFFTH-2" edge="1">
          <mxGeometry relative="1" as="geometry" />
        </mxCell>
        <mxCell id="1bS6ruDLV1M1j20cFFTH-7" style="edgeStyle=orthogonalEdgeStyle;rounded=0;orthogonalLoop=1;jettySize=auto;html=1;exitX=1;exitY=0.5;exitDx=0;exitDy=0;entryX=0;entryY=0.5;entryDx=0;entryDy=0;endArrow=none;endFill=0;" parent="1" source="1bS6ruDLV1M1j20cFFTH-1" target="1bS6ruDLV1M1j20cFFTH-6" edge="1">
          <mxGeometry relative="1" as="geometry" />
        </mxCell>
        <mxCell id="1bS6ruDLV1M1j20cFFTH-20" style="edgeStyle=orthogonalEdgeStyle;rounded=0;orthogonalLoop=1;jettySize=auto;html=1;exitX=0.5;exitY=0;exitDx=0;exitDy=0;entryX=0.5;entryY=1;entryDx=0;entryDy=0;endArrow=none;endFill=0;" parent="1" source="1bS6ruDLV1M1j20cFFTH-1" target="1bS6ruDLV1M1j20cFFTH-18" edge="1">
          <mxGeometry relative="1" as="geometry" />
        </mxCell>
        <mxCell id="1bS6ruDLV1M1j20cFFTH-1" value="VLIW CPU" style="rounded=1;whiteSpace=wrap;html=1;" parent="1" vertex="1">
          <mxGeometry x="300" y="160" width="120" height="60" as="geometry" />
        </mxCell>
        <mxCell id="1bS6ruDLV1M1j20cFFTH-9" style="edgeStyle=orthogonalEdgeStyle;rounded=0;orthogonalLoop=1;jettySize=auto;html=1;exitX=0.5;exitY=1;exitDx=0;exitDy=0;entryX=0.5;entryY=0;entryDx=0;entryDy=0;endArrow=none;endFill=0;" parent="1" source="1bS6ruDLV1M1j20cFFTH-2" target="1bS6ruDLV1M1j20cFFTH-8" edge="1">
          <mxGeometry relative="1" as="geometry" />
        </mxCell>
        <mxCell id="1bS6ruDLV1M1j20cFFTH-10" style="edgeStyle=orthogonalEdgeStyle;rounded=0;orthogonalLoop=1;jettySize=auto;html=1;exitX=0;exitY=0;exitDx=0;exitDy=0;entryX=0.25;entryY=1;entryDx=0;entryDy=0;" parent="1" source="1bS6ruDLV1M1j20cFFTH-2" target="1bS6ruDLV1M1j20cFFTH-1" edge="1">
          <mxGeometry relative="1" as="geometry" />
        </mxCell>
        <mxCell id="1bS6ruDLV1M1j20cFFTH-11" value="Clock" style="edgeLabel;html=1;align=center;verticalAlign=middle;resizable=0;points=[];" parent="1bS6ruDLV1M1j20cFFTH-10" vertex="1" connectable="0">
          <mxGeometry x="0.38" y="1" relative="1" as="geometry">
            <mxPoint as="offset" />
          </mxGeometry>
        </mxCell>
        <mxCell id="1bS6ruDLV1M1j20cFFTH-13" style="edgeStyle=orthogonalEdgeStyle;rounded=0;orthogonalLoop=1;jettySize=auto;html=1;exitX=1;exitY=0.5;exitDx=0;exitDy=0;entryX=0;entryY=0.5;entryDx=0;entryDy=0;shape=flexArrow;" parent="1" source="1bS6ruDLV1M1j20cFFTH-2" target="1bS6ruDLV1M1j20cFFTH-12" edge="1">
          <mxGeometry relative="1" as="geometry" />
        </mxCell>
        <mxCell id="1bS6ruDLV1M1j20cFFTH-15" style="edgeStyle=orthogonalEdgeStyle;rounded=0;orthogonalLoop=1;jettySize=auto;html=1;exitX=1;exitY=1;exitDx=0;exitDy=0;entryX=0;entryY=0.25;entryDx=0;entryDy=0;" parent="1" source="1bS6ruDLV1M1j20cFFTH-2" target="1bS6ruDLV1M1j20cFFTH-14" edge="1">
          <mxGeometry relative="1" as="geometry" />
        </mxCell>
        <mxCell id="1bS6ruDLV1M1j20cFFTH-16" style="edgeStyle=orthogonalEdgeStyle;rounded=0;orthogonalLoop=1;jettySize=auto;html=1;exitX=1;exitY=0;exitDx=0;exitDy=0;entryX=0.75;entryY=1;entryDx=0;entryDy=0;" parent="1" source="1bS6ruDLV1M1j20cFFTH-2" target="1bS6ruDLV1M1j20cFFTH-1" edge="1">
          <mxGeometry relative="1" as="geometry" />
        </mxCell>
        <mxCell id="1bS6ruDLV1M1j20cFFTH-17" value="Interrupt" style="edgeLabel;html=1;align=center;verticalAlign=middle;resizable=0;points=[];" parent="1bS6ruDLV1M1j20cFFTH-16" vertex="1" connectable="0">
          <mxGeometry x="0.48" y="-1" relative="1" as="geometry">
            <mxPoint as="offset" />
          </mxGeometry>
        </mxCell>
        <mxCell id="roBuVyx86JBfIL1jFkjS-2" style="edgeStyle=orthogonalEdgeStyle;rounded=0;orthogonalLoop=1;jettySize=auto;html=1;exitX=0.25;exitY=0;exitDx=0;exitDy=0;" edge="1" parent="1" source="1bS6ruDLV1M1j20cFFTH-2" target="roBuVyx86JBfIL1jFkjS-1">
          <mxGeometry relative="1" as="geometry" />
        </mxCell>
        <mxCell id="1bS6ruDLV1M1j20cFFTH-2" value="&lt;div&gt;FPGA&lt;/div&gt;" style="whiteSpace=wrap;html=1;aspect=fixed;" parent="1" vertex="1">
          <mxGeometry x="320" y="310" width="80" height="80" as="geometry" />
        </mxCell>
        <mxCell id="1bS6ruDLV1M1j20cFFTH-5" style="edgeStyle=orthogonalEdgeStyle;rounded=0;orthogonalLoop=1;jettySize=auto;html=1;exitX=1;exitY=0.5;exitDx=0;exitDy=0;entryX=0;entryY=0.5;entryDx=0;entryDy=0;shape=link;" parent="1" source="1bS6ruDLV1M1j20cFFTH-4" target="1bS6ruDLV1M1j20cFFTH-2" edge="1">
          <mxGeometry relative="1" as="geometry" />
        </mxCell>
        <mxCell id="1bS6ruDLV1M1j20cFFTH-4" value="64MiB DDR2" style="rounded=1;whiteSpace=wrap;html=1;" parent="1" vertex="1">
          <mxGeometry x="140" y="320" width="120" height="60" as="geometry" />
        </mxCell>
        <mxCell id="1bS6ruDLV1M1j20cFFTH-6" value="MicroSD" style="rounded=0;whiteSpace=wrap;html=1;" parent="1" vertex="1">
          <mxGeometry x="470" y="175" width="100" height="30" as="geometry" />
        </mxCell>
        <mxCell id="1bS6ruDLV1M1j20cFFTH-8" value="UART" style="rounded=0;whiteSpace=wrap;html=1;" parent="1" vertex="1">
          <mxGeometry x="310" y="430" width="100" height="30" as="geometry" />
        </mxCell>
        <mxCell id="1bS6ruDLV1M1j20cFFTH-12" value="LCD Panel" style="shape=process;whiteSpace=wrap;html=1;backgroundOutline=1;" parent="1" vertex="1">
          <mxGeometry x="470" y="320" width="120" height="60" as="geometry" />
        </mxCell>
        <mxCell id="1bS6ruDLV1M1j20cFFTH-14" value="Addressable LEDs" style="rounded=0;whiteSpace=wrap;html=1;" parent="1" vertex="1">
          <mxGeometry x="450" y="410" width="100" height="30" as="geometry" />
        </mxCell>
        <mxCell id="1bS6ruDLV1M1j20cFFTH-18" value="Caravel Flash" style="rounded=0;whiteSpace=wrap;html=1;" parent="1" vertex="1">
          <mxGeometry x="315" y="90" width="90" height="30" as="geometry" />
        </mxCell>
        <mxCell id="1bS6ruDLV1M1j20cFFTH-22" style="edgeStyle=orthogonalEdgeStyle;rounded=0;orthogonalLoop=1;jettySize=auto;html=1;exitX=1;exitY=0;exitDx=0;exitDy=0;entryX=0;entryY=0.75;entryDx=0;entryDy=0;" parent="1" source="1bS6ruDLV1M1j20cFFTH-21" target="1bS6ruDLV1M1j20cFFTH-2" edge="1">
          <mxGeometry relative="1" as="geometry" />
        </mxCell>
        <mxCell id="1bS6ruDLV1M1j20cFFTH-21" value="NES Controller Port" style="rounded=0;whiteSpace=wrap;html=1;" parent="1" vertex="1">
          <mxGeometry x="170" y="420" width="110" height="30" as="geometry" />
        </mxCell>
        <mxCell id="roBuVyx86JBfIL1jFkjS-4" style="edgeStyle=orthogonalEdgeStyle;rounded=0;orthogonalLoop=1;jettySize=auto;html=1;exitX=0;exitY=0.5;exitDx=0;exitDy=0;entryX=1;entryY=0.5;entryDx=0;entryDy=0;" edge="1" parent="1" source="roBuVyx86JBfIL1jFkjS-1" target="roBuVyx86JBfIL1jFkjS-3">
          <mxGeometry relative="1" as="geometry" />
        </mxCell>
        <mxCell id="roBuVyx86JBfIL1jFkjS-1" value="DAC" style="rounded=0;whiteSpace=wrap;html=1;" vertex="1" parent="1">
          <mxGeometry x="190" y="280" width="80" height="30" as="geometry" />
        </mxCell>
        <mxCell id="roBuVyx86JBfIL1jFkjS-3" value="Speaker" style="shape=process;whiteSpace=wrap;html=1;backgroundOutline=1;" vertex="1" parent="1">
          <mxGeometry x="10" y="280" width="110" height="40" as="geometry" />
        </mxCell>
      </root>
    </mxGraphModel>
  </diagram>
</mxfile>
